<svg width="16" height="16" viewBox="0 0 16 16" fill="none" xmlns="http://www.w3.org/2000/svg">
    <path d="M8.5 15.5L10.5 13.5L8.5 11.5M5.5 13.5H10M12.5 11.5L10.5 9.5L12.5 7.5M15.5 9.5H11" stroke="#3574F0" stroke-linecap="round" stroke-linejoin="round"/>
    <path fill-rule="evenodd" clip-rule="evenodd" d="M2 3.39246H2.01664C2.07865 3.00405 2.30765 2.67483 2.59694 2.41334C2.9371 2.10586 3.40129 1.85189 3.93236 1.64885C4.99792 1.24147 6.43619 1 8 1C9.56381 1 11.0021 1.24147 12.0676 1.64885C12.5987 1.85189 13.0629 2.10586 13.4031 2.41334C13.6924 2.67483 13.9213 3.00405 13.9834 3.39246H14V6H13V5.09723C12.7276 5.27221 12.4117 5.42512 12.0676 5.55665C11.0021 5.96403 9.56381 6.2055 8 6.2055C6.43619 6.2055 4.99792 5.96403 3.93236 5.55665C3.58833 5.42512 3.27236 5.27221 3 5.09723V6.54663C3 6.64645 3.05102 6.79851 3.2675 6.99419C3.48396 7.18985 3.82523 7.38898 4.28947 7.56647C5.21452 7.92013 6.52624 8.14938 8 8.14938C8.65798 8.14938 9.28367 8.10368 9.85706 8.02162L9.43934 8.43934C9.24594 8.63274 9.11639 8.86581 9.0507 9.11236C8.70901 9.13674 8.35779 9.14938 8 9.14938C6.43619 9.14938 4.99792 8.90791 3.93236 8.50053C3.58833 8.369 3.27236 8.21609 3 8.04112V9.49048C3 9.59029 3.05102 9.74236 3.2675 9.93804C3.48396 10.1337 3.82523 10.3328 4.28947 10.5103C4.99918 10.7817 5.93651 10.9798 7 11.0573V12H6.34643C5.43386 11.8944 4.60815 11.7027 3.93236 11.4444C3.58833 11.3128 3.27236 11.1599 3 10.985V12.4343C3 12.5341 3.05102 12.6862 3.2675 12.8819C3.43617 13.0343 3.68063 13.1889 4 13.3337V14.4137C3.97729 14.4053 3.95474 14.3968 3.93236 14.3882C3.40129 14.1852 2.9371 13.9312 2.59694 13.6237C2.2768 13.3344 2.03051 12.9621 2.00263 12.5184H2V3.39246ZM3 3.60275C3 3.50293 3.05102 3.35087 3.2675 3.15519C3.48396 2.95953 3.82523 2.7604 4.28947 2.58291C5.21452 2.22925 6.52624 2 8 2C9.47376 2 10.7855 2.22925 11.7105 2.58291C12.1748 2.7604 12.516 2.95953 12.7325 3.15519C12.949 3.35087 13 3.50293 13 3.60275C13 3.70256 12.949 3.85463 12.7325 4.05031C12.516 4.24597 12.1748 4.4451 11.7105 4.62258C10.7855 4.97625 9.47376 5.2055 8 5.2055C6.52624 5.2055 5.21452 4.97625 4.28947 4.62258C3.82523 4.4451 3.48396 4.24597 3.2675 4.05031C3.05102 3.85463 3 3.70256 3 3.60275Z" fill="#6C707E"/>
</svg>