<svg width="16" height="16" viewBox="0 0 16 16" fill="none" xmlns="http://www.w3.org/2000/svg">
    <path d="M11.9978 13C12.5501 13 12.9978 12.5523 12.9978 12C12.9978 11.4477 12.5501 11 11.9978 11C11.4455 11 10.9978 11.4477 10.9978 12C10.9978 12.5523 11.4455 13 11.9978 13Z" fill="#3574F0"/>
    <path fill-rule="evenodd" clip-rule="evenodd" d="M13.1194 15.6756C13.0462 15.8707 12.8597 16 12.6512 16H11.3442C11.1358 16 10.9493 15.8707 10.8761 15.6756L10.6266 15.0102C10.5427 14.7865 10.3121 14.6534 10.0764 14.6926L9.37546 14.8092C9.16986 14.8434 8.96461 14.7464 8.8604 14.5659L8.2069 13.4341C8.10269 13.2536 8.12138 13.0273 8.25379 12.8664L8.70522 12.3177C8.85705 12.1331 8.85705 11.8669 8.70522 11.6824L8.25377 11.1336C8.12136 10.9727 8.10267 10.7464 8.20688 10.5659L8.86038 9.43405C8.96459 9.25355 9.16984 9.15663 9.37544 9.19083L10.0764 9.30742C10.3121 9.34664 10.5427 9.21353 10.6266 8.98976L10.8761 8.32444C10.9493 8.12929 11.1358 8 11.3442 8H12.6512C12.8597 8 13.0462 8.12929 13.1194 8.32444L13.3689 8.98976C13.4528 9.21353 13.6834 9.34664 13.9191 9.30742L14.6201 9.19083C14.8256 9.15663 15.0309 9.25355 15.1351 9.43405L15.7886 10.5659C15.8928 10.7464 15.8741 10.9727 15.7417 11.1336L15.2903 11.6824C15.1384 11.8669 15.1384 12.1331 15.2903 12.3177L15.7417 12.8664C15.8741 13.0273 15.8928 13.2536 15.7886 13.4341L15.1351 14.5659C15.0309 14.7464 14.8256 14.8434 14.62 14.8092L13.9191 14.6926C13.6834 14.6534 13.4528 14.7865 13.3689 15.0102L13.1194 15.6756ZM11.6907 15H12.3047L12.4326 14.6591C12.6843 13.9878 13.3759 13.5885 14.0832 13.7061L14.4423 13.7659L14.7493 13.2341L14.518 12.953C14.0625 12.3993 14.0625 11.6007 14.518 11.047L14.7493 10.7659L14.4423 10.2341L14.0832 10.2939C13.3759 10.4115 12.6843 10.0122 12.4326 9.34088L12.3047 9H11.6907L11.5629 9.34088C11.3112 10.0122 10.6195 10.4115 9.9123 10.2939L9.55316 10.2341L9.24616 10.7659L9.47747 11.047C9.93297 11.6007 9.93297 12.3993 9.47747 12.953L9.24618 13.2341L9.55318 13.7659L9.9123 13.7061C10.6195 13.5885 11.3112 13.9878 11.5629 14.6591L11.6907 15Z" fill="#3574F0"/>
    <path fill-rule="evenodd" clip-rule="evenodd" d="M12.3086 15H11.6946L11.5668 14.6591C11.315 13.9878 10.6234 13.5885 9.91614 13.7061L9.55702 13.7659L9.25002 13.2341L9.48131 12.953C9.93681 12.3993 9.93681 11.6007 9.48131 11.047L9.25 10.7659L9.557 10.2341L9.91614 10.2939C10.6234 10.4115 11.315 10.0122 11.5668 9.34088L11.6946 9H12.3086L12.4364 9.34088C12.6882 10.0122 13.3798 10.4115 14.087 10.2939L14.4462 10.2341L14.7532 10.7659L14.5219 11.047C14.0664 11.6007 14.0664 12.3993 14.5219 12.953L14.7532 13.2341L14.4462 13.7659L14.087 13.7061C13.3798 13.5885 12.6882 13.9878 12.4364 14.6591L12.3086 15ZM13.0016 12C13.0016 12.5523 12.5539 13 12.0016 13C11.4494 13 11.0016 12.5523 11.0016 12C11.0016 11.4477 11.4494 11 12.0016 11C12.5539 11 13.0016 11.4477 13.0016 12Z" fill="#EDF3FF"/>
    <path fill-rule="evenodd" clip-rule="evenodd" d="M2 3.39246H2.01664C2.07865 3.00405 2.30765 2.67483 2.59694 2.41334C2.9371 2.10586 3.40129 1.85189 3.93236 1.64885C4.99792 1.24147 6.43619 1 8 1C9.56381 1 11.0021 1.24147 12.0676 1.64885C12.5987 1.85189 13.0629 2.10586 13.4031 2.41334C13.6924 2.67483 13.9213 3.00405 13.9834 3.39246H14V7.41604C13.6825 7.27732 13.3478 7.17062 13 7.10002V5.09723C12.7276 5.27221 12.4117 5.42512 12.0676 5.55665C11.0021 5.96403 9.56381 6.2055 8 6.2055C6.43619 6.2055 4.99792 5.96403 3.93236 5.55665C3.58833 5.42512 3.27236 5.27221 3 5.09723V6.54663C3 6.64645 3.05102 6.79851 3.2675 6.99419C3.48396 7.18985 3.82523 7.38898 4.28947 7.56647C5.21452 7.92013 6.52624 8.14938 8 8.14938C8.28707 8.14938 8.56799 8.14068 8.84111 8.12406C8.47908 8.41946 8.15923 8.76458 7.89194 9.14899C6.37001 9.13815 4.97333 8.89851 3.93236 8.50053C3.58833 8.369 3.27236 8.21609 3 8.04112V9.49048C3 9.59029 3.05102 9.74236 3.2675 9.93804C3.48396 10.1337 3.82523 10.3328 4.28947 10.5103C5.01861 10.7891 5.98798 10.9905 7.08758 11.0634C7.03009 11.3668 7 11.6799 7 12C7 12.0199 7.00012 12.0399 7.00035 12.0598C5.8284 11.9804 4.76625 11.7632 3.93236 11.4444C3.58833 11.3128 3.27236 11.1599 3 10.985V12.4343C3 12.5341 3.05102 12.6862 3.2675 12.8819C3.48396 13.0775 3.82523 13.2767 4.28947 13.4542C5.09281 13.7613 6.18778 13.9746 7.42723 14.0254C7.58774 14.3873 7.78994 14.7265 8.02773 15.037L8 15.0371C6.43619 15.0371 4.99792 14.7956 3.93236 14.3882C3.40129 14.1852 2.9371 13.9312 2.59694 13.6237C2.2768 13.3344 2.03051 12.9621 2.00263 12.5184H2V3.39246ZM3 3.60275C3 3.50293 3.05102 3.35087 3.2675 3.15519C3.48396 2.95953 3.82523 2.7604 4.28947 2.58291C5.21452 2.22925 6.52624 2 8 2C9.47376 2 10.7855 2.22925 11.7105 2.58291C12.1748 2.7604 12.516 2.95953 12.7325 3.15519C12.949 3.35087 13 3.50293 13 3.60275C13 3.70256 12.949 3.85463 12.7325 4.05031C12.516 4.24597 12.1748 4.4451 11.7105 4.62258C10.7855 4.97625 9.47376 5.2055 8 5.2055C6.52624 5.2055 5.21452 4.97625 4.28947 4.62258C3.82523 4.4451 3.48396 4.24597 3.2675 4.05031C3.05102 3.85463 3 3.70256 3 3.60275Z" fill="#6C707E"/>
</svg>
